<svg xmlns="http://www.w3.org/2000/svg" viewBox="0 0 240.903 39.583">
  <defs>
    <style>
      .cls-1, .cls-2 {
        fill: #4944cc;
      }

      .cls-2 {
        font-size: 20px;
        font-family: Baloo-Regular, Baloo;
        letter-spacing: 0.068em;
      }
    </style>
  </defs>
  <g id="Group_345" data-name="Group 345" transform="translate(0 0)">
    <g id="Group_326" data-name="Group 326">
      <path id="Path_121" data-name="Path 121" class="cls-1" d="M183.472,2.435l-3.219,3.219-.038.038L168.8,17.094a1.2,1.2,0,0,0,0,1.7h0a5.765,5.765,0,0,0,8.146,0l8.193-8.193,12.29,12.29,3.247-3.247a8.306,8.306,0,0,0,0-11.752l-5.465-5.456A8.3,8.3,0,0,0,183.472,2.435Z" transform="translate(-154.985 0)"/>
      <path id="Path_122" data-name="Path 122" class="cls-1" d="M237.223,339.272,234,342.491a1.2,1.2,0,0,0,0,1.7l1.095,1.095a4.216,4.216,0,0,0,5.956,0l1.095-1.095a1.2,1.2,0,0,0,0-1.7l-.208-.208-3.011-3.011A1.225,1.225,0,0,0,237.223,339.272Z" transform="translate(-214.031 -306.933)"/>
      <path id="Path_123" data-name="Path 123" class="cls-1" d="M171.923,274l-3.219,3.219a1.2,1.2,0,0,0,0,1.7l3.219,3.219a1.2,1.2,0,0,0,1.7,0l3.219-3.219a1.2,1.2,0,0,0,0-1.7l-.208-.208L173.622,274A1.2,1.2,0,0,0,171.923,274Z" transform="translate(-154.895 -247.82)"/>
      <path id="Path_124" data-name="Path 124" class="cls-1" d="M237.223,208.7,234,211.923a1.2,1.2,0,0,0,0,1.7L243.386,223a1.2,1.2,0,0,0,1.7,0l3.219-3.219a1.2,1.2,0,0,0,0-1.7l-1.539-1.539-7.844-7.844A1.2,1.2,0,0,0,237.223,208.7Z" transform="translate(-214.031 -188.684)"/>
      <path id="Path_125" data-name="Path 125" class="cls-1" d="M302.423,143.5l-3.219,3.219a1.2,1.2,0,0,0,0,1.7l9.382,9.383a1.2,1.2,0,0,0,1.7,0l3.219-3.219a1.2,1.2,0,0,0,0-1.7l-1.539-1.539-7.844-7.844A1.2,1.2,0,0,0,302.423,143.5Z" transform="translate(-273.076 -129.638)"/>
      <path id="Path_126" data-name="Path 126" class="cls-1" d="M45.452,3.335a8.306,8.306,0,0,0-11.752,0L28.235,8.8a8.306,8.306,0,0,0,0,11.752L31.482,23.8l5.239,5.239a1.2,1.2,0,0,0,1.7,0l3.219-3.219a1.2,1.2,0,0,0,0-1.7l-.463-.463L37.25,19.731a1.2,1.2,0,0,1,0-1.7L48.7,6.582Z" transform="translate(-25.8 -0.815)"/>
    </g>
    <text id="TAK_FOR_HJÆPEN" data-name="TAK FOR HJÆPEN" class="cls-2" transform="translate(67.903 26.814)"><tspan x="0" y="0">TAK FOR HJÆPEN</tspan></text>
  </g>
</svg>
