<?xml version="1.0" encoding="utf-8"?>
<!-- Generator: Adobe Illustrator 22.1.0, SVG Export Plug-In . SVG Version: 6.00 Build 0)  -->
<svg version="1.1" id="Lag_1" xmlns="http://www.w3.org/2000/svg" xmlns:xlink="http://www.w3.org/1999/xlink" x="0px" y="0px"
	 viewBox="0 0 320 320" style="enable-background:new 0 0 320 320;" xml:space="preserve">
<path d="M176.3,160L302.1,34.1c4.5-4.5,4.5-11.8,0-16.3c-4.5-4.5-11.8-4.5-16.3,0L160,143.7L34.1,17.9c-4.5-4.5-11.8-4.5-16.3,0
	c-4.5,4.5-4.5,11.8,0,16.3L143.7,160L17.9,285.9c-4.5,4.5-4.5,11.8,0,16.3c2.2,2.2,5.2,3.4,8.1,3.4c2.9,0,5.9-1.1,8.1-3.4L160,176.3
	l125.9,125.9c2.2,2.2,5.2,3.4,8.1,3.4s5.9-1.1,8.1-3.4c4.5-4.5,4.5-11.8,0-16.3L176.3,160z"/>
</svg>
