<svg xmlns="http://www.w3.org/2000/svg" viewBox="0 0 67.051 58.67"><defs><style>.a{fill:#5c5c5c;}</style></defs><g transform="translate(-64.504 -72.896)"><path class="a" d="M11.162,71.151C4.715,71.151,0,63.665,0,58.126c0-3.705,2.1-7.6,6.487-7.6,6.447,0,11.162,7.525,11.162,13.063C17.649,67.294,15.594,71.151,11.162,71.151Zm45.574,13.9c0,4.851-4.191,5.615-8.3,5.615-5.4,0-9.751-3.438-14.909-3.438-5.4,0-9.993,3.4-15.836,3.4-3.909,0-7.374-1.26-7.374-5.577,0-9.053,13.338-22.5,23.21-22.5S56.736,76.041,56.736,85.055ZM23.9,54.5c-6.528,0-10.477-7.792-10.477-13.14,0-4.278,2.337-9.358,7.535-9.358,6.568,0,10.477,7.792,10.477,13.14C31.43,49.418,29.093,54.5,23.9,54.5ZM35.621,45.14C35.621,39.792,39.53,32,46.1,32c5.2,0,7.535,5.08,7.535,9.358,0,5.347-3.949,13.14-10.477,13.14C37.958,54.5,35.621,49.418,35.621,45.14Zm31.43,12.987c0,5.539-4.715,13.025-11.162,13.025-4.433,0-6.487-3.858-6.487-7.563,0-5.538,4.714-13.063,11.162-13.063C64.956,50.525,67.051,54.421,67.051,58.126Z" transform="translate(64.504 40.896)"/></g></svg>