<svg xmlns="http://www.w3.org/2000/svg" viewBox="0 0 66.411 76.84"><defs><style>.a{fill:#5c5c5c;}</style></defs><g transform="translate(-20.293)"><g transform="translate(20.293)"><path class="a" d="M144.2,0H104.719a3.316,3.316,0,0,0-2.57,1.221,8.858,8.858,0,0,1,1.711,2.049H144.2a.053.053,0,0,1,.052.053V39.507a.053.053,0,0,1-.052.053H106.786v3.269H144.2a3.326,3.326,0,0,0,3.322-3.322V3.322A3.326,3.326,0,0,0,144.2,0Z" transform="translate(-81.113)"/><path class="a" d="M49.432,60.06,58.7,53.085a2.985,2.985,0,0,0,.619-4.141l2.158-8.86L68.536,41.8a.586.586,0,0,0,.708-.43l.767-3.15a.586.586,0,0,0-.43-.708l-18.4-4.481a.586.586,0,0,0-.708.43l-.767,3.15a.586.586,0,0,0,.43.708l7.054,1.718-2.3,9.436-4.3,3.236-.021-4.16A7.083,7.083,0,0,0,43.5,40.519H27.471c-5.678,0-7.053,4.056-7.068,7.032l-.11,21.942a2.987,2.987,0,0,0,2.971,3h.015a2.99,2.99,0,0,0,2.986-2.972l.11-21.942a.577.577,0,0,1,1.153,0c0,7.136,0,46.937,0,50.2a3.584,3.584,0,1,0,7.168,0V69.141h1.548V97.788a3.584,3.584,0,1,0,7.168,0c0-46.783-.063-21.12-.065-50.2a.625.625,0,0,1,1.25,0h0l.051,10.106A2.99,2.99,0,0,0,49.432,60.06Z" transform="translate(-20.293 -24.532)"/><path class="a" d="M224.647,23.778l-.456,1.918-1.919.456,1.919.456.456,1.918.456-1.918,1.918-.456L225.1,25.7Z" transform="translate(-170.367 -17.667)"/><path class="a" d="M240.531,48.736l.33-1.39,1.39-.33-1.39-.33-.33-1.39-.33,1.39-1.39.33,1.39.33Z" transform="translate(-182.656 -33.655)"/><path class="a" d="M229.408,69.128l-.393,1.654-1.654.393,1.654.393.393,1.654.393-1.654,1.654-.393-1.654-.393Z" transform="translate(-174.148 -51.363)"/><path class="a" d="M61.623,18.741a6.19,6.19,0,1,0-6.19-6.19A6.193,6.193,0,0,0,61.623,18.741Z" transform="translate(-46.403 -4.726)"/></g></g></svg>