<svg xmlns="http://www.w3.org/2000/svg" viewBox="0 0 82.877 82.877"><defs><style>.a{fill:#5c5c5c;}</style></defs><g transform="translate(-1530.562 -507.562)"><g transform="translate(1530.562 507.562)"><path class="a" d="M122.233,0A25.835,25.835,0,0,0,106.8,46.554v2.157a7.613,7.613,0,0,0-.545,10.932,7.623,7.623,0,0,0,3.319,12.49,12.829,12.829,0,0,0,25.317,0,7.623,7.623,0,0,0,3.319-12.49,7.612,7.612,0,0,0-.546-10.932V46.554A25.835,25.835,0,0,0,122.233,0Zm10.4,51.668a2.774,2.774,0,0,1,0,5.547H111.83a2.774,2.774,0,1,1,0-5.547Zm-10.4,26.352a7.99,7.99,0,0,1-7.6-5.547H129.83A7.989,7.989,0,0,1,122.233,78.021Zm10.4-10.4H111.83a2.773,2.773,0,1,1,0-5.547h20.806a2.773,2.773,0,1,1,0,5.547Zm1.25-24.338a2.428,2.428,0,0,0-1.077,2.018v1.519c-.058,0-.115,0-.173,0h-2.774V37.243l3.487-3.487a2.428,2.428,0,1,0-3.433-3.434l-4.2,4.2a2.427,2.427,0,0,0-.711,1.717V46.812H119.46V36.237a2.428,2.428,0,0,0-.711-1.717l-4.2-4.2a2.428,2.428,0,0,0-3.433,3.434l3.487,3.487v9.57H111.83c-.058,0-.116,0-.173,0V45.3a2.428,2.428,0,0,0-1.077-2.018,20.979,20.979,0,1,1,23.307,0Zm0,0" transform="translate(-80.795)"/><path class="a" d="M10.057,147.03A2.428,2.428,0,0,0,7.629,144.6h-5.2a2.428,2.428,0,1,0,0,4.856h5.2A2.428,2.428,0,0,0,10.057,147.03Zm0,0" transform="translate(0 -121.195)"/><path class="a" d="M457.5,144.6h-5.2a2.428,2.428,0,1,0,0,4.856h5.2a2.428,2.428,0,1,0,0-4.856Zm0,0" transform="translate(-377.048 -121.195)"/><path class="a" d="M38,249.357l-4.5,2.6a2.428,2.428,0,1,0,2.428,4.205l4.5-2.6A2.428,2.428,0,0,0,38,249.357Zm0,0" transform="translate(-27.059 -208.721)"/><path class="a" d="M424.312,31.557a2.418,2.418,0,0,0,1.211-.326l4.505-2.6a2.428,2.428,0,1,0-2.428-4.2l-4.505,2.6a2.428,2.428,0,0,0,1.217,4.531Zm0,0" transform="translate(-353.592 -20.198)"/><path class="a" d="M430.027,251.961l-4.5-2.6a2.428,2.428,0,1,0-2.428,4.205l4.505,2.6a2.428,2.428,0,0,0,2.427-4.205Zm0,0" transform="translate(-353.591 -208.724)"/><path class="a" d="M40.434,27.026l-4.5-2.6A2.428,2.428,0,0,0,33.5,28.632l4.5,2.6a2.428,2.428,0,0,0,2.428-4.206Zm0,0" transform="translate(-27.061 -20.199)"/></g></g></svg>