<svg xmlns="http://www.w3.org/2000/svg" viewBox="0 0 61.489 61.49"><defs><style>.a{fill:#5c5c5c;}</style></defs><g transform="translate(-64.615 -52.821)"><path class="a" d="M36.151,62.745,61.168,37.678a1.1,1.1,0,0,0,0-1.552,6.589,6.589,0,0,0-9.317,0L30.72,57.3,24.8,51.376a13.167,13.167,0,1,0-5.437,5.434l5.922,5.935L19.368,68.68A13.176,13.176,0,1,0,24.8,74.113l5.916-5.927L51.85,89.364a6.589,6.589,0,0,0,9.317,0,1.1,1.1,0,0,0,0-1.552ZM13.176,51.764a6.588,6.588,0,1,1,6.588-6.588A6.6,6.6,0,0,1,13.176,51.764Zm0,35.137a6.588,6.588,0,1,1,6.588-6.588A6.6,6.6,0,0,1,13.176,86.9Z" transform="translate(64.616 20.821)"/></g></svg>