<svg xmlns="http://www.w3.org/2000/svg" viewBox="0 0 70.143 89.901"><defs><style>.a{fill:#5c5c5c;}</style></defs><g transform="translate(3.832)"><path class="a" d="M102.781,17.944V1.383A1.383,1.383,0,0,0,101.4,0H95.663A1.382,1.382,0,0,0,94.28,1.383V17.944a10.021,10.021,0,0,0-5.823,9.089V50.743a4.839,4.839,0,0,0,4.835,4.834h10.478a4.84,4.84,0,0,0,4.835-4.834V27.033A10.024,10.024,0,0,0,102.781,17.944ZM100.015,2.766V6.718H97.046V2.766ZM97.046,9.484h2.969v7.642a9.977,9.977,0,0,0-1.423-.1h-.124a9.968,9.968,0,0,0-1.422.1Zm8.793,35.184H98.646V33.825h7.193Zm0,0" transform="translate(-77.701)"/><path class="a" d="M266.447,174.243H261.7v-8.87a7.52,7.52,0,0,0,6.058-7.388V145.68a1.382,1.382,0,0,0-1.383-1.383H254.214a1.383,1.383,0,0,0-1.383,1.383v12.305a7.519,7.519,0,0,0,6.108,7.4v8.862H253.8a1.383,1.383,0,1,0,0,2.766h12.646a1.383,1.383,0,0,0,0-2.766ZM265,147.063v5.248h-9.4v-5.248Zm0,0" transform="translate(-215.745 -121.488)"/><path class="a" d="M135.424,387.349c-.023.026-.046.051-.067.078l-21.034,26.2H91.566V390.236a2.771,2.771,0,0,1,5.541,0v10.325a5.322,5.322,0,0,0,3.549,5.292,7.162,7.162,0,0,0,7.356-1.414l.173-.156,19.7-16.1a1.3,1.3,0,0,0,.1-.093,6.136,6.136,0,0,1,6.048-1.549l1.264.369a.266.266,0,0,1,.122.438Zm-29.014,14.811-.047.04-.2.175a4.463,4.463,0,0,1-4.521.894,2.562,2.562,0,0,1-1.773-2.709V397.65l10.874-9.889c.019-.017.037-.034.055-.052a10.817,10.817,0,0,1,6.147-3.1.274.274,0,0,1,.3.176v0a.281.281,0,0,1-.086.317q-.542.433-1.051.915l-11.478,10.182a1.421,1.421,0,0,0-.194,1.949,1.382,1.382,0,0,0,1.988.158l11.54-10.236.038-.036a12.654,12.654,0,0,1,8.789-3.536c.2,0,1.142.177.861.35C127.092,385.2,106.411,402.161,106.411,402.161Zm0,0" transform="translate(-80.319 -323.729)"/><path class="a" d="M64.928,366.516H-2.449a1.382,1.382,0,0,1-1.383-1.383,1.382,1.382,0,0,1,1.383-1.383H64.928a1.383,1.383,0,1,1,0,2.766Zm0,0" transform="translate(0 -306.253)"/></g></svg>