<svg xmlns="http://www.w3.org/2000/svg" viewBox="0 0 97.005 70.69"><defs><style>.a{fill:#5c5c5c;}</style></defs><g transform="translate(0 -8.606)"><g transform="translate(0 8.606)"><path class="a" d="M73.7,66.378c2.542-.8,2.75-3.581,2.069-5.366l-7.01-16.519c-.983-1.978-2.38-2.784-4.972-2.854-.489-.015-.983,0-1.474-.009,2.244-.771,3.753-3.678,1.511-5.753-4.232-3.917-7.739-8.25-11.635-12.5a7.022,7.022,0,0,0-2.963-2.029c-2.883-.919-6.822.98-7.372,4.2a175.345,175.345,0,0,0-2.325,17.767c-.243,3.639,1.593,6.008,4.7,6.082,6.7.157,18.285.014,18.285.014L68.55,63.79A4.141,4.141,0,0,0,73.7,66.378ZM51.726,41.446q.351-3.479.824-6.933,3.007,3.3,6.288,6.351a3.6,3.6,0,0,0,1.211.749C57.277,41.588,54.5,41.547,51.726,41.446Z" transform="translate(20.896 -1.988)"/><circle class="a" cx="6.883" cy="6.883" r="6.883" transform="translate(63.709 4.233)"/><path class="a" d="M87.507,64.038a1.41,1.41,0,0,0-1.945.443A16.832,16.832,0,1,1,59.4,43.637a1.406,1.406,0,0,0-1.44-2.33l-.584-8.6a1.421,1.421,0,0,0-.865-1.212l-.878-.361A2.713,2.713,0,0,0,54.209,27.6q-7.655-3.825-15.3-7.65a5.8,5.8,0,0,0-1.277-1.839c-2.127-2.1-6.446-2.526-8.473.044A132.937,132.937,0,0,0,17.045,36.417a7.12,7.12,0,0,0-.936,4.061c.494,9.673-4.622,16.553-13.581,20.117A3.97,3.97,0,1,0,5.7,67.868c9.487-3.9,15.62-10.39,17.724-19.959a51.03,51.03,0,0,1,8.659,19.565c1.066,5.038,9.11,4.293,7.857-1.429A61.458,61.458,0,0,0,28.226,40.976a111.275,111.275,0,0,1,9.461-14.4c.023-.026.04-.057.063-.084q6.621,3.307,13.24,6.62a3.152,3.152,0,0,0,2.518.188l1.122.466.706,10.346a19.451,19.451,0,0,0-3.681,11.424A19.656,19.656,0,0,0,87.96,65.978,1.416,1.416,0,0,0,87.507,64.038Z" transform="translate(0 -4.496)"/><circle class="a" cx="6.675" cy="6.675" r="6.675" transform="translate(35.266)"/></g></g></svg>