<svg xmlns="http://www.w3.org/2000/svg" viewBox="0 0 94.633 94.576"><defs><style>.a{fill:#5c5c5c;}</style></defs><g transform="translate(0 -0.153)"><g transform="translate(7.886 15.868)"><path class="a" d="M48.579,85.179a5.915,5.915,0,0,0-5.915,5.915v15.772h3.943V91.094a1.972,1.972,0,0,1,1.972-1.972H95.9V85.179Z" transform="translate(-42.664 -85.179)"/></g><g transform="translate(7.886 53.327)"><path class="a" d="M48.579,309.532a1.972,1.972,0,0,1-1.972-1.972V287.845H42.664V307.56a5.915,5.915,0,0,0,5.915,5.915H68.294v-3.943Z" transform="translate(-42.664 -287.845)"/></g><g transform="translate(0 31.641)"><path class="a" d="M62.511,218.972l-47.88-47.88a1.972,1.972,0,0,0-2.788,0L.577,182.357a1.972,1.972,0,0,0,0,2.788l47.88,47.88a1.971,1.971,0,0,0,2.788,0L62.51,221.759A1.971,1.971,0,0,0,62.511,218.972Zm-12.659,9.871L4.759,183.75l8.478-8.478,45.093,45.093Z" transform="translate(0 -170.514)"/></g><g transform="translate(57.174 75.014)"><path class="a" d="M338.9,405.179H309.331v3.943h21.687v9.858a1.972,1.972,0,0,0,1.972,1.972H338.9a7.886,7.886,0,1,0,0-15.772Zm0,11.829h-3.943v-7.886H338.9a3.943,3.943,0,0,1,0,7.886Z" transform="translate(-309.331 -405.179)"/></g><g transform="translate(76.889 15.868)"><path class="a" d="M425.856,85.179H416v3.943h9.858a3.943,3.943,0,0,1,3.943,3.943v59.146h3.943V93.065A7.886,7.886,0,0,0,425.856,85.179Z" transform="translate(-415.998 -85.179)"/></g><g transform="translate(30.15 55.876)"><rect class="a" width="8.365" height="3.943" transform="translate(0 5.915) rotate(-45)"/></g><g transform="translate(22.264 47.99)"><rect class="a" width="8.365" height="3.943" transform="translate(0 5.915) rotate(-45)"/></g><g transform="translate(38.032 63.762)"><rect class="a" width="8.365" height="3.943" transform="translate(0 5.915) rotate(-45)"/></g><g transform="translate(45.922 71.652)"><rect class="a" width="8.365" height="3.943" transform="translate(0 5.915) rotate(-45)"/></g><g transform="translate(14.373 40.104)"><rect class="a" width="8.365" height="3.943" transform="translate(0 5.915) rotate(-45)"/></g><g transform="translate(43.519 0.153)"><g transform="translate(0 0)"><path class="a" d="M276.976,4.528,274.251,1.8a5.966,5.966,0,0,0-8.239,0L236.033,31.782a1.972,1.972,0,0,0,0,2.788l8.176,8.176a1.971,1.971,0,0,0,2.788,0l29.979-29.979,0,0A5.824,5.824,0,0,0,276.976,4.528ZM274.19,9.977,245.6,38.564l-5.388-5.388L268.8,4.591a1.926,1.926,0,0,1,2.662,0l2.727,2.723h0A1.883,1.883,0,0,1,274.19,9.977Z" transform="translate(-235.456 -0.153)"/></g></g><g transform="translate(39.429 32.553)"><path class="a" d="M226.932,182.381l-8.509,2.841,2.841-8.523-3.746-1.248-4.089,12.265a1.971,1.971,0,0,0,1.871,2.594,2,2,0,0,0,.615-.095l12.265-4.089Z" transform="translate(-213.328 -175.451)"/></g><g transform="translate(68.623 7.252)"><rect class="a" width="3.943" height="11.563" transform="translate(0 2.788) rotate(-45)"/></g><g transform="translate(41.402 43.469)"><rect class="a" width="29.573" height="3.943"/></g><g transform="translate(74.917 43.469)"><rect class="a" width="3.943" height="3.943"/></g><g transform="translate(82.804 43.469)"><rect class="a" width="3.943" height="3.943"/></g></g></svg>