<svg xmlns="http://www.w3.org/2000/svg" viewBox="0 0 83.963 67.17"><defs><style>.a{fill:#5c5c5c;}</style></defs><g transform="translate(-56.811 -48.96)"><path class="a" d="M16.8,12.595a6.3,6.3,0,1,0-6.3-6.3A6.3,6.3,0,0,0,16.8,12.595Zm50.379,0a6.3,6.3,0,1,0-6.3-6.3A6.3,6.3,0,0,0,67.178,12.595ZM78.723,32.878,76.23,22.592a7.649,7.649,0,0,0-4.4-5.156,7.529,7.529,0,0,0-6.743.3c-3.359,1.889-5.287,6.245-6.14,8.685l-1.6,4.552a1.094,1.094,0,0,1-.446.564l-2.322,1.325V16.793a2.105,2.105,0,0,0-2.1-2.1H31.493a2.105,2.105,0,0,0-2.1,2.1V32.864l-2.335-1.325a1.164,1.164,0,0,1-.446-.564l-1.6-4.552c-.853-2.44-2.781-6.8-6.14-8.685a7.529,7.529,0,0,0-6.743-.3,7.715,7.715,0,0,0-4.4,5.156l-2.48,10.3a7.644,7.644,0,0,0,2.4,7.544l9.013,7.872a4.213,4.213,0,0,1,1.43,2.821l1.05,13.146a3.145,3.145,0,0,0,6.271-.5L24.277,49.448a7.631,7.631,0,0,0-2.585-5.13l-6.848-5.983L18.1,26.252c.354.7,2.571,6.8,2.571,6.8a7.59,7.59,0,0,0,3.017,3.792l4.841,2.545a4.227,4.227,0,0,0,1.955.485H53.507a4.227,4.227,0,0,0,1.955-.485L60.3,36.84a7.59,7.59,0,0,0,3.017-3.792s2.217-6.114,2.571-6.8l3.254,12.083L62.3,44.318a7.631,7.631,0,0,0-2.585,5.13L58.558,63.761a3.145,3.145,0,1,0,6.271.5l1.05-13.146a4.185,4.185,0,0,1,1.43-2.821l9.013-7.859A7.694,7.694,0,0,0,78.723,32.878Zm-30.437.708H35.691V20.991H48.286ZM83.734,62.829l-7.045-17.16-5.012,4.382L77.9,65.217a3.154,3.154,0,0,0,5.838-2.388Zm-83.493,0a3.148,3.148,0,1,0,5.825,2.388l6.219-15.166L7.274,45.669.242,62.829Z" transform="translate(56.803 48.961)"/></g></svg>