<svg xmlns="http://www.w3.org/2000/svg" viewBox="0 0 83.603 69.594"><defs><style>.a{fill:#5c5c5c;}</style></defs><g transform="translate(-56.3 -51.089)"><g transform="translate(56.3 51.089)"><g transform="translate(39.352 23.712)"><g transform="translate(0 0)"><circle class="a" cx="2.449" cy="2.449" r="2.449"/></g></g><g transform="translate(39.352 50.001)"><circle class="a" cx="2.449" cy="2.449" r="2.449"/></g><g transform="translate(0 0)"><path class="a" d="M71.356,42.893,59.11,55.139V66.6H54.048V55.139L41.8,42.893,29.555,55.139V66.6H24.493V55.139L12.246,42.893,0,55.139v57.348H24.493v-14.7h5.062v14.7H54.048v-14.7H59.11v14.7H83.6V55.139Zm-51.762,64.7H4.9V57.169l7.348-7.348,7.348,7.348Zm9.96-14.7H24.493V71.5h5.062Zm19.594,14.7h-14.7V57.169L41.8,49.821l7.348,7.348Zm9.96-14.7H54.048V71.5H59.11Zm19.594,14.7h-14.7V57.169l7.348-7.348L78.7,57.169Z" transform="translate(0 -42.893)"/></g><g transform="translate(68.907 23.712)"><g transform="translate(0 0)"><circle class="a" cx="2.449" cy="2.449" r="2.449"/></g></g><g transform="translate(68.907 50.001)"><circle class="a" cx="2.449" cy="2.449" r="2.449"/></g><g transform="translate(9.797 23.712)"><g transform="translate(0 0)"><circle class="a" cx="2.449" cy="2.449" r="2.449"/></g></g><g transform="translate(9.797 50.001)"><circle class="a" cx="2.449" cy="2.449" r="2.449"/></g></g></g></svg>