<svg xmlns="http://www.w3.org/2000/svg" viewBox="0 0 73.548 73.548"><defs><style>.a{fill:#5c5c5c;}</style></defs><g transform="translate(-61.335 -49.57)"><path class="a" d="M72.061,64.94,8.606,1.487A4.936,4.936,0,0,0,5.078,0,5.038,5.038,0,0,0,0,5.052V68.506a5.041,5.041,0,0,0,5.042,5.042H68.5a5.042,5.042,0,0,0,3.565-8.607ZM6.9,66.653V9.527l9.061,9.061-1.625,1.625a2.3,2.3,0,0,0,0,3.251l1.625,1.625a2.3,2.3,0,0,0,3.251,0l1.625-1.625,6.5,6.5-1.625,1.625a2.3,2.3,0,0,0,0,3.251l1.625,1.625a2.3,2.3,0,0,0,3.251,0l1.625-1.625,6.5,6.5-1.625,1.625a2.3,2.3,0,0,0,0,3.251l1.625,1.625a2.3,2.3,0,0,0,3.251,0l1.625-1.625,6.5,6.5L48.46,54.341a2.3,2.3,0,0,0,0,3.251l1.625,1.625a2.3,2.3,0,0,0,3.251,0l1.625-1.625,9.061,9.061ZM18.387,55.161h17.89l-17.89-17.89Z" transform="translate(61.334 49.57)"/></g></svg>