<svg xmlns="http://www.w3.org/2000/svg" viewBox="0 0 80.631 64.505"><defs><style>.a{fill:#5c5c5c;}</style></defs><g transform="translate(-57.359 -55.978)"><path class="a" d="M74.584,0H6.047A6.049,6.049,0,0,0,0,6.047V46.363A6.049,6.049,0,0,0,6.047,52.41H37.292v6.047H19.15a3.024,3.024,0,0,0,0,6.047H61.481a3.024,3.024,0,0,0,0-6.047H43.339V52.41H74.584a6.049,6.049,0,0,0,6.047-6.047V6.047A6.049,6.049,0,0,0,74.584,0Zm-.756,46.363H6.8a.758.758,0,0,1-.756-.756V6.8A.758.758,0,0,1,6.8,6.047H73.828a.758.758,0,0,1,.756.756v38.8A.758.758,0,0,1,73.828,46.363Z" transform="translate(57.359 55.978)"/></g></svg>