<svg xmlns="http://www.w3.org/2000/svg" viewBox="0 0 50.533 70.349"><defs><style>.a{fill:#5c5c5c;}</style></defs><g transform="translate(-73.127 -57.347)"><path class="a" d="M113.4,0H77.22A3.725,3.725,0,0,0,73.5,3.72V9.461a.9.9,0,0,1-.955.977h-.754a5.214,5.214,0,0,0-5.208,5.208V30.691A5.214,5.214,0,0,0,71.791,35.9H93.076a.754.754,0,0,1,.744.744v13.12c0,.626-.658.713-.948.772a4.472,4.472,0,0,0-3.566,4.374V65.885a4.469,4.469,0,0,0,4.464,4.464h4.862a4.469,4.469,0,0,0,4.464-4.464V54.91a4.47,4.47,0,0,0-4.151-4.453.662.662,0,0,1-.661-.667V36.644a5.214,5.214,0,0,0-5.208-5.208H71.792a.754.754,0,0,1-.744-.744V15.647a.754.754,0,0,1,.744-.744h.8a.766.766,0,0,1,.905.846v5.873a3.724,3.724,0,0,0,3.72,3.72H113.4a3.724,3.724,0,0,0,3.72-3.72V3.72A3.724,3.724,0,0,0,113.4,0Z" transform="translate(6.544 57.347)"/></g></svg>