<svg xmlns="http://www.w3.org/2000/svg" viewBox="0 0 97.416 60.301"><defs><style>.a{fill:#5c5c5c;}</style></defs><path class="a" d="M94.32,66.152a3.764,3.764,0,0,0-1,.139l-3.8,1.046-3.942-9.6A8.6,8.6,0,0,0,78.225,52.8H41.335a8.6,8.6,0,0,0-7.358,4.933l-2.944,7.175c.043-.476.068-.956.068-1.441a15.6,15.6,0,0,0-7.841-13.506,1.736,1.736,0,0,0-.862-.225A1.7,1.7,0,0,0,20.687,51.5s-.03,7.784-.029,10.379a1.142,1.142,0,0,1-.461.694l-.1.073a35.1,35.1,0,0,1-4.386,3.2l-.163,0-.174,0A34.6,34.6,0,0,1,10.923,62.6l-.1-.075a1.174,1.174,0,0,1-.383-.89c0-2.7-.027-10.124-.027-10.124a1.67,1.67,0,0,0-1.666-1.782,1.907,1.907,0,0,0-.932.249,15.549,15.549,0,0,0,1.9,27.9v26.477a5.678,5.678,0,0,0,5.671,5.671h.323a5.678,5.678,0,0,0,5.671-5.671V77.889a15.522,15.522,0,0,0,5.162-3.426q.546-.546,1.03-1.136l-1.588,3.867a29.986,29.986,0,0,0-1.882,9.538v19.076a4,4,0,0,0,4,4h5.221a4,4,0,0,0,4-4v-4.764H82.239v4.764a4,4,0,0,0,4,4h5.22a4,4,0,0,0,4-4V86.733a29.989,29.989,0,0,0-1.882-9.538l-.636-1.55h.483a4,4,0,0,0,4-4V69.409A3.075,3.075,0,0,0,94.32,66.152ZM32.908,73.475,38.871,58.95a5.169,5.169,0,0,1,4.412-2.958h33a5.169,5.169,0,0,1,4.412,2.958l5.963,14.524a2,2,0,0,1-1.983,2.958H34.891A2,2,0,0,1,32.908,73.475ZM46.218,91.845a1.6,1.6,0,0,1-1.6,1.6H33.292a1.6,1.6,0,0,1-1.6-1.6V86.409a1.6,1.6,0,0,1,1.6-1.6H44.62a1.6,1.6,0,0,1,1.6,1.6Zm41.543,0a1.6,1.6,0,0,1-1.6,1.6H74.835a1.6,1.6,0,0,1-1.6-1.6V86.409a1.6,1.6,0,0,1,1.6-1.6H86.162a1.6,1.6,0,0,1,1.6,1.6Z" transform="translate(0 -49.726)"/></svg>