<svg xmlns="http://www.w3.org/2000/svg" viewBox="0 0 81.354 76.708"><defs><style>.a{fill:#5c5c5c;}</style></defs><g transform="translate(0 -14.76)"><path class="a" d="M72.295,17.576c-6.249-3.607-14.863-3.759-22.477-.4-7.045,3.113-12.124,9.973-15.125,15.128A3,3,0,0,0,32.017,37.5c-.274.609-.441,1.019-.5,1.178L16.932,70.7a3,3,0,0,0-2.591,5.421l.1.05-3.28,7.209H3.009a3.009,3.009,0,1,0,0,6.019H18.056a3.009,3.009,0,1,0,0-6.019h-.283L19.861,78.8A2.992,2.992,0,0,0,22.316,73.4L37.425,40.217a3,3,0,0,0,2.737-5.334c2.574-4.338,6.7-9.814,12.09-12.2,5.8-2.563,12.486-2.523,17.035.1A11.353,11.353,0,0,1,75,31.918c.84,7.733.128,12.918-2.109,15.414a5.532,5.532,0,0,1-.665.614v6.737a11.843,11.843,0,0,0,5.145-3.331c3.479-3.875,4.66-10.444,3.614-20.082A17.516,17.516,0,0,0,72.295,17.576Z"/><path class="a" d="M257.111,226.28a12.958,12.958,0,0,1,5.492,1.226v-23.8c0-1.663.158-1.5-1.5-1.5h-5.894c-1.663,0-18.433,1.38-22.863,23.278l-2.842,18.1c0,1.663,1.347,3.762,3.009,3.762h14.281a13.05,13.05,0,0,1,10.321-21.066Z" transform="translate(-193.387 -157.946)"/><path class="a" d="M358.079,377.2a10.2,10.2,0,0,0-1.5-1.2,10.056,10.056,0,1,0,.721,16.32,10.122,10.122,0,0,0,2.125-2.271,10.011,10.011,0,0,0,.167-10.989A10.294,10.294,0,0,0,358.079,377.2Zm-7,2.169a5.047,5.047,0,1,1-5.047,5.047A5.047,5.047,0,0,1,351.082,379.365Z" transform="translate(-287.358 -303.007)"/></g></svg>