<svg xmlns="http://www.w3.org/2000/svg" viewBox="0 0 93.483 73.326"><defs><style>.a{fill:#5c5c5c;}</style></defs><g transform="translate(-51.42 -53.075)"><g transform="translate(51.42 53.076)"><path class="a" d="M17.186,10.311A10.311,10.311,0,1,1,27.5,20.623,10.311,10.311,0,0,1,17.186,10.311Zm36.466.2a4.583,4.583,0,0,0-6.481,0L34.765,22.914H20.23L7.824,10.508a4.583,4.583,0,0,0-6.481,6.481L14.895,30.541v38.2a4.583,4.583,0,0,0,4.583,4.583h2.291a4.583,4.583,0,0,0,4.583-4.583V52.7h2.291v16.04a4.583,4.583,0,0,0,4.583,4.583h2.291A4.583,4.583,0,0,0,40.1,68.743v-38.2L53.652,16.989A4.583,4.583,0,0,0,53.652,10.508Z" transform="translate(38.489)"/><path class="a" d="M14.5,8.7a8.7,8.7,0,1,1,8.7,8.7A8.7,8.7,0,0,1,14.5,8.7Zm30.758.166a3.865,3.865,0,0,0-5.466,0L29.322,19.327H17.063L6.6,8.863A3.865,3.865,0,0,0,1.132,14.33l11.43,11.43V57.981a3.865,3.865,0,0,0,3.865,3.865h1.933a3.865,3.865,0,0,0,3.865-3.865V44.452h1.933V57.981a3.865,3.865,0,0,0,3.865,3.865h1.933a3.865,3.865,0,0,0,3.865-3.865V25.76l11.43-11.43A3.865,3.865,0,0,0,45.253,8.863Z" transform="translate(0 11.479)"/></g></g></svg>